<?xml version="1.0" encoding="utf-8" ?>
<svg baseProfile="tiny" height="284.7mm" version="1.2" width="228mm" xmlns="http://www.w3.org/2000/svg" xmlns:ev="http://www.w3.org/2001/xml-events" xmlns:xlink="http://www.w3.org/1999/xlink"><defs /><line stroke="rgb(10%,10%,16%)" stroke-dasharray="5 5" x1="114.0mm" x2="114.0mm" y1="237.25mm" y2="47.45mm" /><line stroke="rgb(10%,10%,16%)" stroke-dasharray="5 5" x1="142.0mm" x2="86.0mm" y1="47.45mm" y2="47.45mm" /><line stroke="rgb(10%,10%,16%)" stroke-dasharray="5 5" x1="142.0mm" x2="142.0mm" y1="47.45mm" y2="62.050000000000004mm" /><line stroke="rgb(10%,10%,16%)" stroke-dasharray="5 5" x1="86.0mm" x2="86.0mm" y1="47.45mm" y2="62.050000000000004mm" /><line stroke="rgb(10%,10%,16%)" x1="142.0mm" x2="86.0mm" y1="62.050000000000004mm" y2="62.050000000000004mm" /><line stroke="rgb(10%,10%,16%)" stroke-dasharray="5 5" x1="171.0mm" x2="57.0mm" y1="237.25mm" y2="237.25mm" /><line stroke="rgb(10%,10%,16%)" stroke-dasharray="5 5" x1="171.0mm" x2="171.0mm" y1="237.25mm" y2="222.65mm" /><line stroke="rgb(10%,10%,16%)" stroke-dasharray="5 5" x1="57.0mm" x2="57.0mm" y1="237.25mm" y2="222.65mm" /><line stroke="rgb(10%,10%,16%)" x1="171.0mm" x2="57.0mm" y1="222.65mm" y2="222.65mm" /><line stroke="rgb(10%,10%,16%)" x1="171.0mm" x2="142.0mm" y1="222.65mm" y2="62.050000000000004mm" /><line stroke="rgb(10%,10%,16%)" x1="57.0mm" x2="86.0mm" y1="222.65mm" y2="62.050000000000004mm" /><line stroke="rgb(10%,100%,100%)" stroke-dasharray="5 5" x1="59.63636363636366mm" x2="168.36363636363637mm" y1="208.04999999999998mm" y2="208.04999999999998mm" /><line stroke="rgb(10%,10%,16%)" x1="57.0mm" x2="65.61818181818184mm" y1="222.65mm" y2="216.6681818181818mm" /><line stroke="rgb(10%,10%,16%)" x1="59.63636363636366mm" x2="65.61818181818184mm" y1="208.04999999999998mm" y2="216.6681818181818mm" /><line stroke="rgb(10%,10%,16%)" x1="171.0mm" x2="162.38181818181815mm" y1="222.65mm" y2="216.6681818181818mm" /><line stroke="rgb(10%,10%,16%)" x1="168.36363636363637mm" x2="162.38181818181815mm" y1="208.04999999999998mm" y2="216.6681818181818mm" /><line stroke="rgb(10%,100%,100%)" stroke-dasharray="5 5" x1="65.61818181818184mm" x2="162.38181818181815mm" y1="216.6681818181818mm" y2="216.6681818181818mm" /><line stroke="rgb(10%,100%,100%)" stroke-dasharray="5 5" x1="62.27272727272731mm" x2="165.72727272727272mm" y1="193.44999999999993mm" y2="193.44999999999993mm" /><line stroke="rgb(10%,10%,16%)" x1="59.63636363636366mm" x2="68.25454545454552mm" y1="208.04999999999998mm" y2="202.0681818181818mm" /><line stroke="rgb(10%,10%,16%)" x1="62.27272727272731mm" x2="68.25454545454552mm" y1="193.44999999999993mm" y2="202.0681818181818mm" /><line stroke="rgb(10%,10%,16%)" x1="168.36363636363637mm" x2="159.7454545454545mm" y1="208.04999999999998mm" y2="202.0681818181818mm" /><line stroke="rgb(10%,10%,16%)" x1="165.72727272727272mm" x2="159.7454545454545mm" y1="193.44999999999993mm" y2="202.0681818181818mm" /><line stroke="rgb(10%,100%,100%)" stroke-dasharray="5 5" x1="68.25454545454552mm" x2="159.7454545454545mm" y1="202.0681818181818mm" y2="202.0681818181818mm" /><line stroke="rgb(10%,100%,100%)" stroke-dasharray="5 5" x1="64.90909090909095mm" x2="163.0909090909091mm" y1="178.84999999999994mm" y2="178.84999999999994mm" /><line stroke="rgb(10%,10%,16%)" x1="62.27272727272731mm" x2="70.89090909090915mm" y1="193.44999999999993mm" y2="187.4681818181818mm" /><line stroke="rgb(10%,10%,16%)" x1="64.90909090909095mm" x2="70.89090909090915mm" y1="178.84999999999994mm" y2="187.4681818181818mm" /><line stroke="rgb(10%,10%,16%)" x1="165.72727272727272mm" x2="157.10909090909095mm" y1="193.44999999999993mm" y2="187.46818181818176mm" /><line stroke="rgb(10%,10%,16%)" x1="163.0909090909091mm" x2="157.10909090909095mm" y1="178.84999999999994mm" y2="187.46818181818176mm" /><line stroke="rgb(10%,100%,100%)" stroke-dasharray="5 5" x1="70.89090909090915mm" x2="157.10909090909095mm" y1="187.4681818181818mm" y2="187.46818181818176mm" /><line stroke="rgb(10%,100%,100%)" stroke-dasharray="5 5" x1="67.54545454545458mm" x2="160.45454545454547mm" y1="164.24999999999994mm" y2="164.24999999999994mm" /><line stroke="rgb(10%,10%,16%)" x1="64.90909090909095mm" x2="73.52727272727276mm" y1="178.84999999999994mm" y2="172.86818181818177mm" /><line stroke="rgb(10%,10%,16%)" x1="67.54545454545458mm" x2="73.52727272727276mm" y1="164.24999999999994mm" y2="172.86818181818177mm" /><line stroke="rgb(10%,10%,16%)" x1="163.0909090909091mm" x2="154.47272727272727mm" y1="178.84999999999994mm" y2="172.86818181818177mm" /><line stroke="rgb(10%,10%,16%)" x1="160.45454545454547mm" x2="154.47272727272727mm" y1="164.24999999999994mm" y2="172.86818181818177mm" /><line stroke="rgb(10%,100%,100%)" stroke-dasharray="5 5" x1="73.52727272727276mm" x2="154.47272727272727mm" y1="172.86818181818177mm" y2="172.86818181818177mm" /><line stroke="rgb(10%,100%,100%)" stroke-dasharray="5 5" x1="70.18181818181822mm" x2="157.81818181818184mm" y1="149.64999999999995mm" y2="149.64999999999995mm" /><line stroke="rgb(10%,10%,16%)" x1="67.54545454545458mm" x2="76.1636363636364mm" y1="164.24999999999994mm" y2="158.26818181818177mm" /><line stroke="rgb(10%,10%,16%)" x1="70.18181818181822mm" x2="76.1636363636364mm" y1="149.64999999999995mm" y2="158.26818181818177mm" /><line stroke="rgb(10%,10%,16%)" x1="160.45454545454547mm" x2="151.83636363636367mm" y1="164.24999999999994mm" y2="158.26818181818177mm" /><line stroke="rgb(10%,10%,16%)" x1="157.81818181818184mm" x2="151.83636363636367mm" y1="149.64999999999995mm" y2="158.26818181818177mm" /><line stroke="rgb(10%,100%,100%)" stroke-dasharray="5 5" x1="76.1636363636364mm" x2="151.83636363636367mm" y1="158.26818181818177mm" y2="158.26818181818177mm" /><line stroke="rgb(10%,100%,100%)" stroke-dasharray="5 5" x1="72.81818181818186mm" x2="155.1818181818182mm" y1="135.0499999999999mm" y2="135.0499999999999mm" /><line stroke="rgb(10%,10%,16%)" x1="70.18181818181822mm" x2="78.80000000000005mm" y1="149.64999999999995mm" y2="143.66818181818178mm" /><line stroke="rgb(10%,10%,16%)" x1="72.81818181818186mm" x2="78.80000000000005mm" y1="135.0499999999999mm" y2="143.66818181818178mm" /><line stroke="rgb(10%,10%,16%)" x1="157.81818181818184mm" x2="149.2mm" y1="149.64999999999995mm" y2="143.66818181818175mm" /><line stroke="rgb(10%,10%,16%)" x1="155.1818181818182mm" x2="149.2mm" y1="135.0499999999999mm" y2="143.66818181818175mm" /><line stroke="rgb(10%,100%,100%)" stroke-dasharray="5 5" x1="78.80000000000005mm" x2="149.2mm" y1="143.66818181818178mm" y2="143.66818181818175mm" /><line stroke="rgb(10%,100%,100%)" stroke-dasharray="5 5" x1="75.4545454545455mm" x2="152.54545454545456mm" y1="120.44999999999987mm" y2="120.44999999999987mm" /><line stroke="rgb(10%,10%,16%)" x1="72.81818181818186mm" x2="81.4363636363637mm" y1="135.0499999999999mm" y2="129.0681818181817mm" /><line stroke="rgb(10%,10%,16%)" x1="75.4545454545455mm" x2="81.4363636363637mm" y1="120.44999999999987mm" y2="129.0681818181817mm" /><line stroke="rgb(10%,10%,16%)" x1="155.1818181818182mm" x2="146.5636363636364mm" y1="135.0499999999999mm" y2="129.06818181818173mm" /><line stroke="rgb(10%,10%,16%)" x1="152.54545454545456mm" x2="146.5636363636364mm" y1="120.44999999999987mm" y2="129.06818181818173mm" /><line stroke="rgb(10%,100%,100%)" stroke-dasharray="5 5" x1="81.4363636363637mm" x2="146.5636363636364mm" y1="129.0681818181817mm" y2="129.06818181818173mm" /><line stroke="rgb(10%,100%,100%)" stroke-dasharray="5 5" x1="78.09090909090914mm" x2="149.9090909090909mm" y1="105.8499999999999mm" y2="105.8499999999999mm" /><line stroke="rgb(10%,10%,16%)" x1="75.4545454545455mm" x2="84.07272727272732mm" y1="120.44999999999987mm" y2="114.46818181818169mm" /><line stroke="rgb(10%,10%,16%)" x1="78.09090909090914mm" x2="84.07272727272732mm" y1="105.8499999999999mm" y2="114.46818181818169mm" /><line stroke="rgb(10%,10%,16%)" x1="152.54545454545456mm" x2="143.92727272727276mm" y1="120.44999999999987mm" y2="114.4681818181817mm" /><line stroke="rgb(10%,10%,16%)" x1="149.9090909090909mm" x2="143.92727272727276mm" y1="105.8499999999999mm" y2="114.4681818181817mm" /><line stroke="rgb(10%,100%,100%)" stroke-dasharray="5 5" x1="84.07272727272732mm" x2="143.92727272727276mm" y1="114.46818181818169mm" y2="114.4681818181817mm" /><line stroke="rgb(10%,100%,100%)" stroke-dasharray="5 5" x1="80.72727272727278mm" x2="147.27272727272725mm" y1="91.24999999999989mm" y2="91.24999999999989mm" /><line stroke="rgb(10%,10%,16%)" x1="78.09090909090914mm" x2="86.70909090909097mm" y1="105.8499999999999mm" y2="99.86818181818172mm" /><line stroke="rgb(10%,10%,16%)" x1="80.72727272727278mm" x2="86.70909090909097mm" y1="91.24999999999989mm" y2="99.86818181818172mm" /><line stroke="rgb(10%,10%,16%)" x1="149.9090909090909mm" x2="141.2909090909091mm" y1="105.8499999999999mm" y2="99.86818181818171mm" /><line stroke="rgb(10%,10%,16%)" x1="147.27272727272725mm" x2="141.2909090909091mm" y1="91.24999999999989mm" y2="99.86818181818171mm" /><line stroke="rgb(10%,100%,100%)" stroke-dasharray="5 5" x1="86.70909090909097mm" x2="141.2909090909091mm" y1="99.86818181818172mm" y2="99.86818181818171mm" /><line stroke="rgb(10%,100%,100%)" stroke-dasharray="5 5" x1="83.3636363636364mm" x2="144.63636363636363mm" y1="76.6499999999999mm" y2="76.6499999999999mm" /><line stroke="rgb(10%,10%,16%)" x1="80.72727272727278mm" x2="89.3454545454546mm" y1="91.24999999999989mm" y2="85.26818181818172mm" /><line stroke="rgb(10%,10%,16%)" x1="83.3636363636364mm" x2="89.3454545454546mm" y1="76.6499999999999mm" y2="85.26818181818172mm" /><line stroke="rgb(10%,10%,16%)" x1="147.27272727272725mm" x2="138.65454545454546mm" y1="91.24999999999989mm" y2="85.26818181818173mm" /><line stroke="rgb(10%,10%,16%)" x1="144.63636363636363mm" x2="138.65454545454546mm" y1="76.6499999999999mm" y2="85.26818181818173mm" /><line stroke="rgb(10%,100%,100%)" stroke-dasharray="5 5" x1="89.3454545454546mm" x2="138.65454545454546mm" y1="85.26818181818172mm" y2="85.26818181818173mm" /><line stroke="rgb(10%,100%,100%)" stroke-dasharray="5 5" x1="86.00000000000004mm" x2="142.0mm" y1="62.049999999999905mm" y2="62.049999999999905mm" /><line stroke="rgb(10%,10%,16%)" x1="83.3636363636364mm" x2="91.98181818181824mm" y1="76.6499999999999mm" y2="70.66818181818172mm" /><line stroke="rgb(10%,10%,16%)" x1="86.00000000000004mm" x2="91.98181818181824mm" y1="62.049999999999905mm" y2="70.66818181818172mm" /><line stroke="rgb(10%,10%,16%)" x1="144.63636363636363mm" x2="136.01818181818183mm" y1="76.6499999999999mm" y2="70.66818181818171mm" /><line stroke="rgb(10%,10%,16%)" x1="142.0mm" x2="136.01818181818183mm" y1="62.049999999999905mm" y2="70.66818181818171mm" /><line stroke="rgb(10%,100%,100%)" stroke-dasharray="5 5" x1="91.98181818181824mm" x2="136.01818181818183mm" y1="70.66818181818172mm" y2="70.66818181818171mm" /></svg>