<?xml version="1.0" encoding="utf-8" ?>
<svg baseProfile="tiny" height="284.7mm" version="1.2" width="141.0mm" xmlns="http://www.w3.org/2000/svg" xmlns:ev="http://www.w3.org/2001/xml-events" xmlns:xlink="http://www.w3.org/1999/xlink"><defs /><line stroke="rgb(10%,10%,16%)" stroke-dasharray="5 5" x1="70.5mm" x2="70.5mm" y1="237.25mm" y2="47.45mm" /><line stroke="rgb(10%,10%,16%)" stroke-dasharray="5 5" x1="98.5mm" x2="42.5mm" y1="47.45mm" y2="47.45mm" /><line stroke="rgb(10%,10%,16%)" stroke-dasharray="5 5" x1="98.5mm" x2="98.5mm" y1="47.45mm" y2="62.050000000000004mm" /><line stroke="rgb(10%,10%,16%)" stroke-dasharray="5 5" x1="42.5mm" x2="42.5mm" y1="47.45mm" y2="62.050000000000004mm" /><line stroke="rgb(10%,10%,16%)" x1="98.5mm" x2="42.5mm" y1="62.050000000000004mm" y2="62.050000000000004mm" /><line stroke="rgb(10%,10%,16%)" stroke-dasharray="5 5" x1="105.75mm" x2="35.25mm" y1="237.25mm" y2="237.25mm" /><line stroke="rgb(10%,10%,16%)" stroke-dasharray="5 5" x1="105.75mm" x2="105.75mm" y1="237.25mm" y2="222.65mm" /><line stroke="rgb(10%,10%,16%)" stroke-dasharray="5 5" x1="35.25mm" x2="35.25mm" y1="237.25mm" y2="222.65mm" /><line stroke="rgb(10%,10%,16%)" x1="105.75mm" x2="35.25mm" y1="222.65mm" y2="222.65mm" /><line stroke="rgb(10%,10%,16%)" x1="105.75mm" x2="98.5mm" y1="222.65mm" y2="62.050000000000004mm" /><line stroke="rgb(10%,10%,16%)" x1="35.25mm" x2="42.5mm" y1="222.65mm" y2="62.050000000000004mm" /><line stroke="rgb(10%,100%,100%)" stroke-dasharray="5 5" x1="35.909090909090914mm" x2="105.09090909090911mm" y1="208.04999999999998mm" y2="208.04999999999998mm" /><line stroke="rgb(10%,10%,16%)" x1="35.25mm" x2="28.27954545454546mm" y1="222.65mm" y2="215.02045454545456mm" /><line stroke="rgb(10%,10%,16%)" x1="35.909090909090914mm" x2="28.27954545454546mm" y1="208.04999999999998mm" y2="215.02045454545456mm" /><line stroke="rgb(10%,10%,16%)" x1="105.75mm" x2="112.72045454545454mm" y1="222.65mm" y2="215.02045454545453mm" /><line stroke="rgb(10%,10%,16%)" x1="105.09090909090911mm" x2="112.72045454545454mm" y1="208.04999999999998mm" y2="215.02045454545453mm" /><line stroke="rgb(10%,100%,100%)" stroke-dasharray="5 5" x1="28.27954545454546mm" x2="112.72045454545454mm" y1="215.02045454545456mm" y2="215.02045454545453mm" /><line stroke="rgb(10%,100%,100%)" stroke-dasharray="5 5" x1="36.56818181818182mm" x2="104.43181818181819mm" y1="193.44999999999993mm" y2="193.44999999999993mm" /><line stroke="rgb(10%,10%,16%)" x1="35.909090909090914mm" x2="28.938636363636352mm" y1="208.04999999999998mm" y2="200.42045454545453mm" /><line stroke="rgb(10%,10%,16%)" x1="36.56818181818182mm" x2="28.938636363636352mm" y1="193.44999999999993mm" y2="200.42045454545453mm" /><line stroke="rgb(10%,10%,16%)" x1="105.09090909090911mm" x2="112.06136363636368mm" y1="208.04999999999998mm" y2="200.42045454545448mm" /><line stroke="rgb(10%,10%,16%)" x1="104.43181818181819mm" x2="112.06136363636368mm" y1="193.44999999999993mm" y2="200.42045454545448mm" /><line stroke="rgb(10%,100%,100%)" stroke-dasharray="5 5" x1="28.938636363636352mm" x2="112.06136363636368mm" y1="200.42045454545453mm" y2="200.42045454545448mm" /><line stroke="rgb(10%,100%,100%)" stroke-dasharray="5 5" x1="37.22727272727273mm" x2="103.7727272727273mm" y1="178.84999999999994mm" y2="178.84999999999994mm" /><line stroke="rgb(10%,10%,16%)" x1="36.56818181818182mm" x2="29.59772727272727mm" y1="193.44999999999993mm" y2="185.82045454545448mm" /><line stroke="rgb(10%,10%,16%)" x1="37.22727272727273mm" x2="29.59772727272727mm" y1="178.84999999999994mm" y2="185.82045454545448mm" /><line stroke="rgb(10%,10%,16%)" x1="104.43181818181819mm" x2="111.40227272727272mm" y1="193.44999999999993mm" y2="185.82045454545448mm" /><line stroke="rgb(10%,10%,16%)" x1="103.7727272727273mm" x2="111.40227272727272mm" y1="178.84999999999994mm" y2="185.82045454545448mm" /><line stroke="rgb(10%,100%,100%)" stroke-dasharray="5 5" x1="29.59772727272727mm" x2="111.40227272727272mm" y1="185.82045454545448mm" y2="185.82045454545448mm" /><line stroke="rgb(10%,100%,100%)" stroke-dasharray="5 5" x1="37.88636363636364mm" x2="103.11363636363639mm" y1="164.24999999999997mm" y2="164.24999999999997mm" /><line stroke="rgb(10%,10%,16%)" x1="37.22727272727273mm" x2="30.256818181818208mm" y1="178.84999999999994mm" y2="171.2204545454545mm" /><line stroke="rgb(10%,10%,16%)" x1="37.88636363636364mm" x2="30.256818181818208mm" y1="164.24999999999997mm" y2="171.2204545454545mm" /><line stroke="rgb(10%,10%,16%)" x1="103.7727272727273mm" x2="110.74318181818182mm" y1="178.84999999999994mm" y2="171.2204545454545mm" /><line stroke="rgb(10%,10%,16%)" x1="103.11363636363639mm" x2="110.74318181818182mm" y1="164.24999999999997mm" y2="171.2204545454545mm" /><line stroke="rgb(10%,100%,100%)" stroke-dasharray="5 5" x1="30.256818181818208mm" x2="110.74318181818182mm" y1="171.2204545454545mm" y2="171.2204545454545mm" /><line stroke="rgb(10%,100%,100%)" stroke-dasharray="5 5" x1="38.54545454545455mm" x2="102.45454545454547mm" y1="149.64999999999992mm" y2="149.64999999999992mm" /><line stroke="rgb(10%,10%,16%)" x1="37.88636363636364mm" x2="30.91590909090909mm" y1="164.24999999999997mm" y2="156.6204545454545mm" /><line stroke="rgb(10%,10%,16%)" x1="38.54545454545455mm" x2="30.91590909090909mm" y1="149.64999999999992mm" y2="156.6204545454545mm" /><line stroke="rgb(10%,10%,16%)" x1="103.11363636363639mm" x2="110.08409090909096mm" y1="164.24999999999997mm" y2="156.6204545454545mm" /><line stroke="rgb(10%,10%,16%)" x1="102.45454545454547mm" x2="110.08409090909096mm" y1="149.64999999999992mm" y2="156.6204545454545mm" /><line stroke="rgb(10%,100%,100%)" stroke-dasharray="5 5" x1="30.91590909090909mm" x2="110.08409090909096mm" y1="156.6204545454545mm" y2="156.6204545454545mm" /><line stroke="rgb(10%,100%,100%)" stroke-dasharray="5 5" x1="39.20454545454546mm" x2="101.79545454545456mm" y1="135.04999999999987mm" y2="135.04999999999987mm" /><line stroke="rgb(10%,10%,16%)" x1="38.54545454545455mm" x2="31.57499999999997mm" y1="149.64999999999992mm" y2="142.02045454545444mm" /><line stroke="rgb(10%,10%,16%)" x1="39.20454545454546mm" x2="31.57499999999997mm" y1="135.04999999999987mm" y2="142.02045454545444mm" /><line stroke="rgb(10%,10%,16%)" x1="102.45454545454547mm" x2="109.42500000000003mm" y1="149.64999999999992mm" y2="142.0204545454544mm" /><line stroke="rgb(10%,10%,16%)" x1="101.79545454545456mm" x2="109.42500000000003mm" y1="135.04999999999987mm" y2="142.0204545454544mm" /><line stroke="rgb(10%,100%,100%)" stroke-dasharray="5 5" x1="31.57499999999997mm" x2="109.42500000000003mm" y1="142.02045454545444mm" y2="142.0204545454544mm" /><line stroke="rgb(10%,100%,100%)" stroke-dasharray="5 5" x1="39.86363636363637mm" x2="101.13636363636364mm" y1="120.44999999999987mm" y2="120.44999999999987mm" /><line stroke="rgb(10%,10%,16%)" x1="39.20454545454546mm" x2="32.2340909090909mm" y1="135.04999999999987mm" y2="127.4204545454544mm" /><line stroke="rgb(10%,10%,16%)" x1="39.86363636363637mm" x2="32.2340909090909mm" y1="120.44999999999987mm" y2="127.4204545454544mm" /><line stroke="rgb(10%,10%,16%)" x1="101.79545454545456mm" x2="108.76590909090912mm" y1="135.04999999999987mm" y2="127.4204545454544mm" /><line stroke="rgb(10%,10%,16%)" x1="101.13636363636364mm" x2="108.76590909090912mm" y1="120.44999999999987mm" y2="127.4204545454544mm" /><line stroke="rgb(10%,100%,100%)" stroke-dasharray="5 5" x1="32.2340909090909mm" x2="108.76590909090912mm" y1="127.4204545454544mm" y2="127.4204545454544mm" /><line stroke="rgb(10%,100%,100%)" stroke-dasharray="5 5" x1="40.52272727272728mm" x2="100.47727272727275mm" y1="105.8499999999999mm" y2="105.8499999999999mm" /><line stroke="rgb(10%,10%,16%)" x1="39.86363636363637mm" x2="32.89318181818184mm" y1="120.44999999999987mm" y2="112.82045454545442mm" /><line stroke="rgb(10%,10%,16%)" x1="40.52272727272728mm" x2="32.89318181818184mm" y1="105.8499999999999mm" y2="112.82045454545442mm" /><line stroke="rgb(10%,10%,16%)" x1="101.13636363636364mm" x2="108.1068181818182mm" y1="120.44999999999987mm" y2="112.82045454545442mm" /><line stroke="rgb(10%,10%,16%)" x1="100.47727272727275mm" x2="108.1068181818182mm" y1="105.8499999999999mm" y2="112.82045454545442mm" /><line stroke="rgb(10%,100%,100%)" stroke-dasharray="5 5" x1="32.89318181818184mm" x2="108.1068181818182mm" y1="112.82045454545442mm" y2="112.82045454545442mm" /><line stroke="rgb(10%,100%,100%)" stroke-dasharray="5 5" x1="41.18181818181819mm" x2="99.81818181818184mm" y1="91.24999999999987mm" y2="91.24999999999987mm" /><line stroke="rgb(10%,10%,16%)" x1="40.52272727272728mm" x2="33.55227272727272mm" y1="105.8499999999999mm" y2="98.2204545454544mm" /><line stroke="rgb(10%,10%,16%)" x1="41.18181818181819mm" x2="33.55227272727272mm" y1="91.24999999999987mm" y2="98.2204545454544mm" /><line stroke="rgb(10%,10%,16%)" x1="100.47727272727275mm" x2="107.44772727272729mm" y1="105.8499999999999mm" y2="98.22045454545443mm" /><line stroke="rgb(10%,10%,16%)" x1="99.81818181818184mm" x2="107.44772727272729mm" y1="91.24999999999987mm" y2="98.22045454545443mm" /><line stroke="rgb(10%,100%,100%)" stroke-dasharray="5 5" x1="33.55227272727272mm" x2="107.44772727272729mm" y1="98.2204545454544mm" y2="98.22045454545443mm" /><line stroke="rgb(10%,100%,100%)" stroke-dasharray="5 5" x1="41.84090909090909mm" x2="99.15909090909092mm" y1="76.64999999999989mm" y2="76.64999999999989mm" /><line stroke="rgb(10%,10%,16%)" x1="41.18181818181819mm" x2="34.21136363636366mm" y1="91.24999999999987mm" y2="83.62045454545442mm" /><line stroke="rgb(10%,10%,16%)" x1="41.84090909090909mm" x2="34.21136363636366mm" y1="76.64999999999989mm" y2="83.62045454545442mm" /><line stroke="rgb(10%,10%,16%)" x1="99.81818181818184mm" x2="106.78863636363639mm" y1="91.24999999999987mm" y2="83.62045454545444mm" /><line stroke="rgb(10%,10%,16%)" x1="99.15909090909092mm" x2="106.78863636363639mm" y1="76.64999999999989mm" y2="83.62045454545444mm" /><line stroke="rgb(10%,100%,100%)" stroke-dasharray="5 5" x1="34.21136363636366mm" x2="106.78863636363639mm" y1="83.62045454545442mm" y2="83.62045454545444mm" /><line stroke="rgb(10%,100%,100%)" stroke-dasharray="5 5" x1="42.5mm" x2="98.50000000000001mm" y1="62.04999999999991mm" y2="62.04999999999991mm" /><line stroke="rgb(10%,10%,16%)" x1="41.84090909090909mm" x2="34.87045454545455mm" y1="76.64999999999989mm" y2="69.02045454545444mm" /><line stroke="rgb(10%,10%,16%)" x1="42.5mm" x2="34.87045454545455mm" y1="62.04999999999991mm" y2="69.02045454545444mm" /><line stroke="rgb(10%,10%,16%)" x1="99.15909090909092mm" x2="106.12954545454546mm" y1="76.64999999999989mm" y2="69.02045454545446mm" /><line stroke="rgb(10%,10%,16%)" x1="98.50000000000001mm" x2="106.12954545454546mm" y1="62.04999999999991mm" y2="69.02045454545446mm" /><line stroke="rgb(10%,100%,100%)" stroke-dasharray="5 5" x1="34.87045454545455mm" x2="106.12954545454546mm" y1="69.02045454545444mm" y2="69.02045454545446mm" /></svg>