0
SECTION
2
HEADER
9
$INSUNITS
70
4
9
$ACADVER
1
AC1014
9
$HANDSEED
5
FFFF
0
ENDSEC
0
SECTION
2
TABLES
0
TABLE
2
VPORT
5
8
100
AcDbSymbolTable
0
ENDTAB
0
TABLE
2
LTYPE
5
5
100
AcDbSymbolTable
0
LTYPE
5
14
100
AcDbSymbolTableRecord
100
AcDbLinetypeTableRecord
2
BYBLOCK
70
0
0
LTYPE
5
15
100
AcDbSymbolTableRecord
100
AcDbLinetypeTableRecord
2
BYLAYER
70
0
0
ENDTAB
0
TABLE
2
LAYER
5
2
100
AcDbSymbolTable
70
2
0
LAYER
5
50
100
AcDbSymbolTableRecord
100
AcDbLayerTableRecord
2
0
70
0
6
CONTINUOUS
0
ENDTAB
0
TABLE
2
STYLE
5
3
100
AcDbSymbolTable
70
1
0
STYLE
5
11
100
AcDbSymbolTableRecord
100
AcDbTextStyleTableRecord
2
STANDARD
70
0
0
ENDTAB
0
TABLE
2
VIEW
5
6
100
AcDbSymbolTable
70
0
0
ENDTAB
0
TABLE
2
UCS
5
7
100
AcDbSymbolTable
70
0
0
ENDTAB
0
TABLE
2
APPID
5
9
100
AcDbSymbolTable
70
2
0
APPID
5
12
100
AcDbSymbolTableRecord
100
AcDbRegAppTableRecord
2
ACAD
70
0
0
ENDTAB
0
TABLE
2
DIMSTYLE
5
A
100
AcDbSymbolTable
70
1
0
ENDTAB
0
TABLE
2
BLOCK_RECORD
5
1
100
AcDbSymbolTable
70
1
0
BLOCK_RECORD
5
1F
100
AcDbSymbolTableRecord
100
AcDbBlockTableRecord
2
*MODEL_SPACE
0
BLOCK_RECORD
5
1B
100
AcDbSymbolTableRecord
100
AcDbBlockTableRecord
2
*PAPER_SPACE
0
ENDTAB
0
ENDSEC
0
SECTION
2
BLOCKS
0
BLOCK
5
20
100
AcDbEntity
100
AcDbBlockBegin
2
*MODEL_SPACE
0
ENDBLK
5
21
100
AcDbEntity
100
AcDbBlockEnd
0
BLOCK
5
1C
100
AcDbEntity
100
AcDbBlockBegin
2
*PAPER_SPACE
0
ENDBLK
5
1D
100
AcDbEntity
100
AcDbBlockEnd
0
ENDSEC
0
SECTION
2
ENTITIES
0
LWPOLYLINE
5
100
100
AcDbEntity
8
0
100
AcDbPolyline
90
6
70
1
43
0.0
10
-29.438456952708954
20
10.597467347756304
10
-39.366962938301995
20
2.1216800641186984
10
-30.891175654664337
20
-7.8068259214743785
10
17.509722050166314
20
-9.7140903445513072
10
26.740491280935544
20
-0.48332111378206699
10
17.50972205016631
20
8.7474481169870693
0
LWPOLYLINE
5
101
100
AcDbEntity
8
0
100
AcDbPolyline
90
4
70
1
43
0.0
10
-26.533019548798215
20
47.406053886217862
10
17.50972205016631
20
45.670525040064007
10
26.740491280935544
20
36.439755809294724
10
-36.461525534391257
20
38.930266602580105
0
LINE
5
102
100
AcDbEntity
8
0
100
AcDbLine
10
-27.985738250753585
20
29.001760616987063
30
0
11
17.509722050166324
21
27.208986578525518
31
0
0
LWPOLYLINE
5
103
100
AcDbEntity
8
0
100
AcDbPolyline
90
16
70
1
43
0.0
10
85.658231800726767
20
184.3469609375
10
150.93420262284778
20
-46.605518229166698
10
139.54080070020214
20
-40.233344831299647
10
145.91297409806927
20
-28.839942908653917
10
17.509722050166374
20
-46.637167267628286
10
26.740491280935572
20
-55.867936498397519
10
17.509722050166356
20
-65.098705729166682
10
17.509722050166339
20
174.90129427083332
10
85.658231800726767
20
184.3469609375
10
79.28605840285968
20
172.95355901485422
10
90.679460325505374
20
166.58138561698703
10
84.307286927638216
20
155.1879836943414
10
26.74049128093559
20
147.20898657852553
10
17.509722050166374
20
156.43975580929472
10
26.74049128093559
20
165.67052504006398
10
17.509722050166339
20
174.90129427083332
0
LINE
5
104
100
AcDbEntity
8
0
100
AcDbLine
10
-37.914244236346647
20
20.525973333349349
30
0
11
26.740491280935544
21
17.978217347756274
31
0
0
LINE
5
105
100
AcDbEntity
8
0
100
AcDbLine
10
-27.985738250753585
20
29.001760616987063
30
0
11
-36.461525534391257
21
38.930266602580105
31
0
0
LWPOLYLINE
5
106
100
AcDbEntity
8
0
100
AcDbPolyline
90
12
70
1
43
0.0
10
17.509722050166339
20
-9.7140903445514226
10
135.8705170485122
20
6.6912077323716446
10
124.4771151258665
20
13.063381130238731
10
130.84928852373366
20
24.456783052884532
10
119.45588660108797
20
30.82895645075169
10
125.82805999895513
20
42.222358373397313
10
114.4346580763095
20
48.5945317712644
10
26.740491280935625
20
36.439755809294709
10
17.509722050166374
20
27.208986578525511
10
26.740491280935572
20
17.978217347756313
10
17.509722050166339
20
8.7474481169870799
10
26.740491280935608
20
-0.48332111378218912
0
LINE
5
107
100
AcDbEntity
8
0
100
AcDbLine
10
17.509722050166324
20
27.208986578525518
30
0
11
26.740491280935544
21
17.978217347756274
31
0
0
LWPOLYLINE
5
108
100
AcDbEntity
8
0
100
AcDbPolyline
90
10
70
1
43
0.0
10
26.740491280935608
20
73.362832732371658
10
104.39220102675239
20
84.125682412290047
10
110.76437442461952
20
95.519084334935769
10
99.370972501973824
20
101.89125773280287
10
105.74314589984098
20
113.28465965544858
10
94.34974397719526
20
119.65683305331572
10
26.740491280935643
20
110.28590965544858
10
17.509722050166356
20
101.05514042467934
10
26.740491280935554
20
91.82437119391011
10
17.509722050166356
20
82.593601963140884
0
LINE
5
109
100
AcDbEntity
8
0
100
AcDbLine
10
17.509722050166317
20
8.7474481169870693
30
0
11
26.740491280935544
21
17.978217347756274
31
0
0
LWPOLYLINE
5
110
100
AcDbEntity
8
0
100
AcDbPolyline
90
4
70
1
43
0.0
10
26.740491280935572
20
-18.944859575320727
10
129.49834365064515
20
-4.7021941902740849
10
140.89174557329076
20
-11.074367588141172
10
17.509722050166339
20
-28.17562880608989
0
LINE
5
111
100
AcDbEntity
8
0
100
AcDbLine
10
-29.438456952708954
20
10.597467347756304
30
0
11
-37.914244236346647
21
20.525973333349349
31
0
0
LINE
5
112
100
AcDbEntity
8
0
100
AcDbLine
10
17.509722050166324
20
27.208986578525518
30
0
11
26.740491280935551
21
36.439755809294724
31
0
0
LINE
5
113
100
AcDbEntity
8
0
100
AcDbLine
10
-43.725119044168217
20
-53.091199743573668
30
0
11
26.740491280935572
21
-55.867936498397519
31
0
0
LWPOLYLINE
5
114
100
AcDbEntity
8
0
100
AcDbPolyline
90
16
70
1
43
0.0
10
-33.79661305857509
20
-44.615412459935932
10
-42.272400342212848
20
-34.686906474342805
10
26.740491280935604
20
-37.406398036858974
10
17.5097220501663
20
-46.637167267628243
10
26.740491280935572
20
-55.867936498397519
10
17.509722050166307
20
-65.098705729166824
10
17.509722050166353
20
174.90129427083326
10
26.740491280935579
20
165.67052504006398
10
17.509722050166335
20
156.43975580929472
10
-17.816707337065971
20
157.83181350160243
10
-26.292494620703657
20
167.76031948719552
10
-16.363988635110573
20
176.23610677083326
10
17.509722050166353
20
174.90129427083326
10
-16.363988635110573
20
176.23610677083326
10
-35.249331760530474
20
-63.019705729166795
10
-43.725119044168217
20
-53.091199743573668
0
LWPOLYLINE
5
115
100
AcDbEntity
8
0
100
AcDbPolyline
90
6
70
1
43
0.0
10
17.509722050166314
20
101.05514042467934
10
26.740491280935533
20
91.824371193910082
10
17.509722050166339
20
82.593601963140884
10
-23.62758214488748
20
84.214640424679331
10
-32.103369428525156
20
94.143146410272379
10
-22.174863442932093
20
102.61893369391011
0
LWPOLYLINE
5
116
100
AcDbEntity
8
0
100
AcDbPolyline
90
4
70
1
43
0.0
10
-40.819681640257372
20
-16.282613205112092
10
26.740491280935519
20
-18.944859575320478
10
17.509722050166332
20
-28.175628806089755
10
-32.343894356619714
20
-26.211119190705141
0
LINE
5
117
100
AcDbEntity
8
0
100
AcDbLine
10
-26.533019548798215
20
47.406053886217862
30
0
11
-35.00880683243593
21
57.334559871810939
31
0
0
LINE
5
118
100
AcDbEntity
8
0
100
AcDbLine
10
26.740491280935608
20
-0.48332111378218912
30
0
11
124.4771151258665
21
13.063381130238731
31
0
0
LINE
5
119
100
AcDbEntity
8
0
100
AcDbLine
10
-35.249331760530474
20
-63.019705729166795
30
0
11
17.509722050166307
21
-65.098705729166809
31
0
0
LINE
5
120
100
AcDbEntity
8
0
100
AcDbLine
10
17.509722050166339
20
8.7474481169870799
30
0
11
130.84928852373366
21
24.456783052884532
31
0
0
LWPOLYLINE
5
121
100
AcDbEntity
8
0
100
AcDbPolyline
90
6
70
1
43
0.0
10
17.509722050166374
20
119.51667888621782
10
100.72191737506245
20
131.05023497596139
10
89.328515452416724
20
137.42240837382855
10
95.70068885028391
20
148.81581029647424
10
17.509722050166356
20
137.97821734775627
10
26.740491280935625
20
128.74744811698702
0
LINE
5
122
100
AcDbEntity
8
0
100
AcDbLine
10
100.72191737506245
20
131.05023497596139
30
0
11
94.34974397719526
21
119.65683305331572
31
0
0
LINE
5
123
100
AcDbEntity
8
0
100
AcDbLine
10
-30.891175654664337
20
-7.8068259214743785
30
0
11
-40.819681640257372
21
-16.282613205112092
31
0
0
LINE
5
124
100
AcDbEntity
8
0
100
AcDbLine
10
17.509722050166374
20
27.208986578525511
30
0
11
125.82805999895513
21
42.222358373397313
31
0
0
LINE
5
125
100
AcDbEntity
8
0
100
AcDbLine
10
17.509722050166314
20
-9.7140903445513072
30
0
11
26.740491280935519
21
-18.944859575320478
31
0
0
LINE
5
126
100
AcDbEntity
8
0
100
AcDbLine
10
17.509722050166339
20
-9.7140903445514226
30
0
11
26.740491280935572
21
-18.944859575320727
31
0
0
LINE
5
127
100
AcDbEntity
8
0
100
AcDbLine
10
26.740491280935572
20
17.978217347756313
30
0
11
119.45588660108797
21
30.82895645075169
31
0
0
LINE
5
128
100
AcDbEntity
8
0
100
AcDbLine
10
135.8705170485122
20
6.6912077323716446
30
0
11
129.49834365064515
21
-4.7021941902740849
31
0
0
LINE
5
129
100
AcDbEntity
8
0
100
AcDbLine
10
-33.79661305857509
20
-44.615412459935932
30
0
11
17.5097220501663
21
-46.637167267628243
31
0
0
LINE
5
130
100
AcDbEntity
8
0
100
AcDbLine
10
17.50972205016631
20
45.670525040064007
30
0
11
26.740491280935558
21
54.90129427083324
31
0
0
LINE
5
131
100
AcDbEntity
8
0
100
AcDbLine
10
-32.343894356619714
20
-26.211119190705141
30
0
11
-42.272400342212848
21
-34.686906474342805
31
0
0
LINE
5
132
100
AcDbEntity
8
0
100
AcDbLine
10
-39.366962938301995
20
2.1216800641186984
30
0
11
26.740491280935544
21
-0.48332111378206699
31
0
0
LINE
5
133
100
AcDbEntity
8
0
100
AcDbLine
10
115.78560294939805
20
77.753509014422932
30
0
11
104.39220102675239
21
84.125682412290047
31
0
0
LINE
5
134
100
AcDbEntity
8
0
100
AcDbLine
10
-27.985738250753585
20
29.001760616987063
30
0
11
-37.914244236346647
21
20.525973333349349
31
0
0
LINE
5
135
100
AcDbEntity
8
0
100
AcDbLine
10
17.509722050166356
20
64.132063501602403
30
0
11
115.78560294939805
21
77.753509014422932
31
0
0
LINE
5
136
100
AcDbEntity
8
0
100
AcDbLine
10
120.80683147417662
20
59.987933693910094
30
0
11
114.4346580763095
21
48.5945317712644
31
0
0
LINE
5
137
100
AcDbEntity
8
0
100
AcDbLine
10
17.509722050166356
20
101.05514042467934
30
0
11
105.74314589984098
21
113.28465965544858
31
0
0
LWPOLYLINE
5
138
100
AcDbEntity
8
0
100
AcDbPolyline
90
6
70
1
43
0.0
10
-20.72214474097672
20
121.02322696314087
10
-29.197932024614424
20
130.95173294873399
10
-19.26942603902134
20
139.42752023237165
10
17.509722050166328
20
137.97821734775627
10
26.740491280935565
20
128.74744811698702
10
17.509722050166339
20
119.51667888621778
0
LINE
5
139
100
AcDbEntity
8
0
100
AcDbLine
10
17.509722050166342
20
82.593601963140884
30
0
11
26.740491280935544
21
73.362832732371658
31
0
0
LINE
5
140
100
AcDbEntity
8
0
100
AcDbLine
10
-19.26942603902134
20
139.42752023237165
30
0
11
-27.745213322659037
21
149.35602621796474
31
0
0
LINE
5
141
100
AcDbEntity
8
0
100
AcDbLine
10
17.509722050166356
20
64.132063501602403
30
0
11
26.740491280935608
21
73.362832732371658
31
0
0
LINE
5
142
100
AcDbEntity
8
0
100
AcDbLine
10
-26.292494620703657
20
167.76031948719552
30
0
11
26.740491280935579
21
165.67052504006398
31
0
0
LWPOLYLINE
5
143
100
AcDbEntity
8
0
100
AcDbPolyline
90
4
70
1
43
0.0
10
120.80683147417662
20
59.987933693910094
10
109.41342955153092
20
66.360107091777223
10
26.740491280935572
20
54.901294270833141
10
17.509722050166374
20
45.670525040063943
0
LINE
5
144
100
AcDbEntity
8
0
100
AcDbLine
10
-20.72214474097672
20
121.02322696314087
30
0
11
-30.650650726569815
21
112.54743967950319
31
0
0
LWPOLYLINE
5
145
100
AcDbEntity
8
0
100
AcDbPolyline
90
4
70
1
43
0.0
10
-25.080300846842842
20
65.810347155448653
10
17.509722050166321
20
64.132063501602488
10
26.740491280935544
20
73.362832732371658
10
-33.556088130480511
20
75.738853141041687
0
LINE
5
146
100
AcDbEntity
8
0
100
AcDbLine
10
145.91297409806927
20
-28.839942908653917
30
0
11
134.51957217542366
21
-22.46776951078683
31
0
0
LINE
5
147
100
AcDbEntity
8
0
100
AcDbLine
10
17.509722050166374
20
45.670525040063943
30
0
11
26.740491280935625
21
36.439755809294709
31
0
0
LINE
5
148
100
AcDbEntity
8
0
100
AcDbLine
10
-30.650650726569815
20
112.54743967950319
30
0
11
26.740491280935558
21
110.28590965544858
31
0
0
LINE
5
149
100
AcDbEntity
8
0
100
AcDbLine
10
-29.197932024614424
20
130.95173294873399
30
0
11
26.740491280935565
21
128.74744811698702
31
0
0
LINE
5
150
100
AcDbEntity
8
0
100
AcDbLine
10
140.89174557329076
20
-11.074367588141172
30
0
11
134.51957217542366
21
-22.46776951078683
31
0
0
LINE
5
151
100
AcDbEntity
8
0
100
AcDbLine
10
17.509722050166356
20
82.593601963140884
30
0
11
110.76437442461952
21
95.519084334935769
31
0
0
LINE
5
152
100
AcDbEntity
8
0
100
AcDbLine
10
17.509722050166335
20
156.43975580929472
30
0
11
26.74049128093559
21
147.20898657852553
31
0
0
LINE
5
153
100
AcDbEntity
8
0
100
AcDbLine
10
17.509722050166314
20
101.05514042467934
30
0
11
26.740491280935558
21
110.28590965544858
31
0
0
LINE
5
154
100
AcDbEntity
8
0
100
AcDbLine
10
115.78560294939805
20
77.753509014422932
30
0
11
109.41342955153092
21
66.360107091777223
31
0
0
LINE
5
155
100
AcDbEntity
8
0
100
AcDbLine
10
17.509722050166328
20
137.97821734775627
30
0
11
26.74049128093559
21
147.20898657852553
31
0
0
LINE
5
156
100
AcDbEntity
8
0
100
AcDbLine
10
26.740491280935572
20
-55.867936498397519
30
0
11
139.54080070020214
21
-40.233344831299647
31
0
0
LINE
5
157
100
AcDbEntity
8
0
100
AcDbLine
10
26.740491280935554
20
91.82437119391011
30
0
11
99.370972501973824
21
101.89125773280287
31
0
0
LINE
5
158
100
AcDbEntity
8
0
100
AcDbLine
10
17.509722050166324
20
-28.175628806089755
30
0
11
26.740491280935604
21
-37.406398036858974
31
0
0
LINE
5
159
100
AcDbEntity
8
0
100
AcDbLine
10
17.509722050166321
20
64.132063501602488
30
0
11
26.740491280935558
21
54.90129427083324
31
0
0
LINE
5
160
100
AcDbEntity
8
0
100
AcDbLine
10
-17.816707337065971
20
157.83181350160243
30
0
11
-27.745213322659037
21
149.35602621796474
31
0
0
LINE
5
161
100
AcDbEntity
8
0
100
AcDbLine
10
17.509722050166356
20
64.132063501602403
30
0
11
26.740491280935572
21
54.901294270833141
31
0
0
LINE
5
162
100
AcDbEntity
8
0
100
AcDbLine
10
17.509722050166339
20
-28.17562880608989
30
0
11
26.740491280935572
21
-37.406398036859088
31
0
0
LINE
5
163
100
AcDbEntity
8
0
100
AcDbLine
10
-27.745213322659037
20
149.35602621796474
30
0
11
26.74049128093559
21
147.20898657852553
31
0
0
LINE
5
164
100
AcDbEntity
8
0
100
AcDbLine
10
17.509722050166335
20
119.51667888621778
30
0
11
26.740491280935558
21
110.28590965544858
31
0
0
LINE
5
165
100
AcDbEntity
8
0
100
AcDbLine
10
-32.103369428525156
20
94.143146410272379
30
0
11
26.740491280935533
21
91.824371193910082
31
0
0
LINE
5
166
100
AcDbEntity
8
0
100
AcDbLine
10
17.509722050166374
20
156.43975580929472
30
0
11
90.679460325505374
21
166.58138561698703
31
0
0
LINE
5
167
100
AcDbEntity
8
0
100
AcDbLine
10
26.740491280935625
20
128.74744811698702
30
0
11
89.328515452416724
21
137.42240837382855
31
0
0
LINE
5
168
100
AcDbEntity
8
0
100
AcDbLine
10
95.70068885028391
20
148.81581029647424
30
0
11
84.307286927638216
21
155.1879836943414
31
0
0
LINE
5
169
100
AcDbEntity
8
0
100
AcDbLine
10
26.74049128093559
20
165.67052504006398
30
0
11
79.28605840285968
21
172.95355901485422
31
0
0
LINE
5
170
100
AcDbEntity
8
0
100
AcDbLine
10
-25.080300846842842
20
65.810347155448653
30
0
11
-35.00880683243593
21
57.334559871810939
31
0
0
LINE
5
171
100
AcDbEntity
8
0
100
AcDbLine
10
17.509722050166356
20
137.97821734775627
30
0
11
26.74049128093559
21
147.20898657852553
31
0
0
LINE
5
172
100
AcDbEntity
8
0
100
AcDbLine
10
17.509722050166374
20
119.51667888621782
30
0
11
26.740491280935643
21
110.28590965544858
31
0
0
LINE
5
173
100
AcDbEntity
8
0
100
AcDbLine
10
17.509722050166356
20
-65.098705729166682
30
0
11
150.93420262284778
21
-46.605518229166698
31
0
0
LINE
5
174
100
AcDbEntity
8
0
100
AcDbLine
10
26.740491280935572
20
-37.406398036859088
30
0
11
134.51957217542366
21
-22.46776951078683
31
0
0
LINE
5
175
100
AcDbEntity
8
0
100
AcDbLine
10
-22.174863442932093
20
102.61893369391011
30
0
11
-30.650650726569815
21
112.54743967950319
31
0
0
LINE
5
176
100
AcDbEntity
8
0
100
AcDbLine
10
-23.62758214488748
20
84.214640424679331
30
0
11
-33.556088130480511
21
75.738853141041687
31
0
0
LINE
5
177
100
AcDbEntity
8
0
100
AcDbLine
10
-35.00880683243593
20
57.334559871810939
30
0
11
26.740491280935558
21
54.90129427083324
31
0
0
LINE
5
178
100
AcDbEntity
8
0
100
AcDbLine
10
17.509722050166374
20
-46.637167267628286
30
0
11
26.740491280935572
21
-37.406398036859088
31
0
0
LWPOLYLINE
5
179
100
AcDbEntity
8
0
100
AcDbPolyline
90
35
70
1
43
0.0
10
188.33166654091167
20
4.3754306450914981
10
298.12186162046692
20
63.211558392407952
10
285.22554006101541
20
65.236179694937547
10
287.25016136354498
20
78.132501254389126
10
274.35383980409341
20
80.157122556918679
10
276.37846110662304
20
93.053444116370372
10
263.48213954717141
20
95.078065418899996
10
265.5067608497011
20
107.97438697835153
10
252.61043929024959
20
109.99900828088113
10
174.57670791771562
20
68.181042803113797
10
162.71721493764852
20
73.636922882365099
10
254.63506059277918
20
122.89532984033269
10
241.73873903332762
20
124.91995114286229
10
243.76336033585721
20
137.81627270231388
10
230.86703877640571
20
139.84089400484348
10
232.89166007893527
20
152.73721556429504
10
219.99533851948371
20
154.76183686682467
10
155.36586921526819
20
120.12716198106899
10
143.50637623520115
20
125.58304206032032
10
222.01995982201336
20
167.65815842627626
10
209.12363826256177
20
169.68277972880585
10
211.14825956509145
20
182.57910128825742
10
137.10276333438537
20
142.89841511963874
10
142.55864341363667
20
154.75790809970582
10
130.69915043356954
20
160.21378817895715
10
136.15503051282084
20
172.07328115902419
10
124.29553753275377
20
177.52916123827555
10
129.75141761200507
20
189.38865421834265
10
117.89192463193788
20
194.84453429759407
10
178.53315879432552
20
227.34192987420107
10
319.86526213431068
20
33.369672668445659
10
306.96894057485918
20
35.394293970975212
10
308.9935618773888
20
48.290615530426834
10
296.09724031793735
20
50.315236832956401
10
200.19115952097874
20
-1.0804494341597604
0
LINE
5
180
100
AcDbEntity
8
0
100
AcDbLine
10
181.92805364009587
20
21.690803704409909
30
0
11
193.78754662016297
21
16.23492362515854
31
0
0
LINE
5
181
100
AcDbEntity
8
0
100
AcDbLine
10
298.12186162046692
20
63.211558392407952
30
0
11
296.09724031793735
21
50.315236832956401
31
0
0
LWPOLYLINE
5
182
100
AcDbEntity
8
0
100
AcDbPolyline
90
47
70
1
43
0.0
10
85.658231800545934
20
184.34696093745652
10
150.93420262285304
20
-46.605518229157639
10
139.54080070020214
20
-40.233344831299647
10
206.59477242179452
20
-18.395822493478136
10
194.73527944172736
20
-12.939942414226806
10
200.19115952097874
20
-1.0804494341596538
10
188.33166654091158
20
4.3754306450916225
10
140.89174557326729
20
-11.074367588139973
10
129.4983436506165
20
-4.7021941902820252
10
193.78754662016286
20
16.234923625158753
10
181.92805364009581
20
21.690803704410008
10
135.87051704847443
20
6.6912077323687935
10
124.47711512582366
20
13.063381130226777
10
187.38393371934708
20
33.550296684477118
10
175.52444073928004
20
39.006176763728327
10
130.84928852368162
20
24.456783052877491
10
119.45588660103083
20
30.828956450735426
10
180.98032081853134
20
50.865669743795401
10
169.12082783846427
20
56.321549823046723
10
125.82805999888876
20
42.222358373386257
10
114.43465807623798
20
48.594531771244192
10
174.57670791771557
20
68.181042803113797
10
162.71721493764844
20
73.636922882365141
10
120.80683147409589
20
59.987933693895044
10
109.41342955144506
20
66.360107091753008
10
168.17309501689977
20
85.496415862432244
10
156.31360203683266
20
90.952295941683573
10
161.76948211608396
20
102.8117889217506
10
104.39220102665224
20
84.125682412261796
10
110.76437442451021
20
95.519084334912549
10
149.90998913601689
20
108.26766900100191
10
155.36586921526819
20
120.12716198106895
10
99.370972501859413
20
101.89125773277048
10
105.74314589971735
20
113.28465965542134
10
94.34974397706651
20
119.65683305327927
10
148.96225631445242
20
137.44253504038741
10
137.10276333438532
20
142.89841511963868
10
100.72191737492449
20
131.0502349759301
10
89.328515452273663
20
137.42240837378807
10
142.55864341363662
20
154.75790809970582
10
130.69915043356951
20
160.21378817895709
10
95.700688850131641
20
148.81581029643888
10
84.307286927480831
20
155.18798369429683
10
136.15503051282084
20
172.07328115902419
10
124.29553753275373
20
177.52916123827555
10
129.75141761200504
20
189.38865421834265
10
79.286058402687956
20
172.95355901480562
0
LINE
5
183
100
AcDbEntity
8
0
100
AcDbLine
10
162.71721493764852
20
73.636922882365099
30
0
11
168.17309501689979
21
85.496415862432173
31
0
0
LINE
5
184
100
AcDbEntity
8
0
100
AcDbLine
10
254.63506059277918
20
122.89532984033269
30
0
11
252.61043929024959
21
109.99900828088113
31
0
0
LINE
5
185
100
AcDbEntity
8
0
100
AcDbLine
10
175.52444073928004
20
39.006176763728327
30
0
11
180.98032081853134
21
50.865669743795401
31
0
0
LINE
5
186
100
AcDbEntity
8
0
100
AcDbLine
10
181.92805364009581
20
21.690803704410008
30
0
11
187.38393371934708
21
33.550296684477118
31
0
0
LINE
5
187
100
AcDbEntity
8
0
100
AcDbLine
10
175.52444073928004
20
39.006176763728348
30
0
11
187.3839337193472
21
33.550296684477026
31
0
0
LINE
5
188
100
AcDbEntity
8
0
100
AcDbLine
10
162.71721493764844
20
73.636922882365141
30
0
11
168.17309501689977
21
85.496415862432244
31
0
0
LINE
5
189
100
AcDbEntity
8
0
100
AcDbLine
10
117.89192463193793
20
194.84453429759398
30
0
11
201.13889234254319
21
-30.255315473545306
31
0
0
LINE
5
190
100
AcDbEntity
8
0
100
AcDbLine
10
117.89192463193788
20
194.84453429759407
30
0
11
201.13889234254319
21
-30.255315473545163
31
0
0
LINE
5
191
100
AcDbEntity
8
0
100
AcDbLine
10
201.13889234254319
20
-30.255315473545306
30
0
11
206.59477242179452
21
-18.395822493478136
31
0
0
LINE
5
192
100
AcDbEntity
8
0
100
AcDbLine
10
200.27655930816948
20
197.50004415023866
30
0
11
187.38023774871792
21
199.52466545276826
31
0
0
LINE
5
193
100
AcDbEntity
8
0
100
AcDbLine
10
142.55864341363667
20
154.75790809970582
30
0
11
198.2519380056398
21
184.6037225907871
31
0
0
LINE
5
194
100
AcDbEntity
8
0
100
AcDbLine
10
124.29553753275377
20
177.52916123827555
30
0
11
189.40485905124757
21
212.42098701221983
31
0
0
LINE
5
195
100
AcDbEntity
8
0
100
AcDbLine
10
189.40485905124757
20
212.42098701221983
30
0
11
176.50853749179595
21
214.44560831474951
31
0
0
LINE
5
196
100
AcDbEntity
8
0
100
AcDbLine
10
136.15503051282084
20
172.07328115902419
30
0
11
187.38023774871792
21
199.52466545276826
31
0
0
LINE
5
197
100
AcDbEntity
8
0
100
AcDbLine
10
189.40485905124757
20
212.42098701221983
30
0
11
187.38023774871792
21
199.52466545276826
31
0
0
LINE
5
198
100
AcDbEntity
8
0
100
AcDbLine
10
117.89192463193788
20
194.84453429759407
30
0
11
178.53315879432552
21
227.34192987420107
31
0
0
LINE
5
199
100
AcDbEntity
8
0
100
AcDbLine
10
148.96225631445247
20
137.44253504038744
30
0
11
209.12363826256177
21
169.68277972880585
31
0
0
LINE
5
200
100
AcDbEntity
8
0
100
AcDbLine
10
178.53315879432552
20
227.34192987420107
30
0
11
176.50853749179595
21
214.44560831474951
31
0
0
LINE
5
201
100
AcDbEntity
8
0
100
AcDbLine
10
130.69915043356954
20
160.21378817895715
30
0
11
200.27655930816948
21
197.50004415023866
31
0
0
LINE
5
202
100
AcDbEntity
8
0
100
AcDbLine
10
135.87051704847443
20
6.6912077323687935
30
0
11
129.4983436506165
21
-4.7021941902820252
31
0
0
LINE
5
203
100
AcDbEntity
8
0
100
AcDbLine
10
150.93420262285304
20
-46.605518229157639
30
0
11
201.13889234254319
21
-30.255315473545306
31
0
0
LINE
5
204
100
AcDbEntity
8
0
100
AcDbLine
10
120.80683147409589
20
59.987933693895044
30
0
11
114.43465807623798
21
48.594531771244192
31
0
0
LINE
5
205
100
AcDbEntity
8
0
100
AcDbLine
10
201.13889234254319
20
-30.255315473545163
30
0
11
319.86526213431068
21
33.369672668445659
31
0
0
LINE
5
206
100
AcDbEntity
8
0
100
AcDbLine
10
201.13889234254319
20
-30.255315473545163
30
0
11
206.59477242179452
21
-18.395822493478136
31
0
0
LINE
5
207
100
AcDbEntity
8
0
100
AcDbLine
10
125.82805999888876
20
42.222358373386257
30
0
11
119.45588660103083
21
30.828956450735426
31
0
0
LINE
5
208
100
AcDbEntity
8
0
100
AcDbLine
10
130.84928852368162
20
24.456783052877491
30
0
11
124.47711512582366
21
13.063381130226777
31
0
0
LINE
5
209
100
AcDbEntity
8
0
100
AcDbLine
10
145.91297409806015
20
-28.839942908648766
30
0
11
194.73527944172736
21
-12.939942414226806
31
0
0
LINE
5
210
100
AcDbEntity
8
0
100
AcDbLine
10
222.01995982201336
20
167.65815842627626
30
0
11
219.99533851948371
21
154.76183686682467
31
0
0
LINE
5
211
100
AcDbEntity
8
0
100
AcDbLine
10
181.92805364009587
20
21.690803704409909
30
0
11
287.25016136354498
21
78.132501254389126
31
0
0
LINE
5
212
100
AcDbEntity
8
0
100
AcDbLine
10
188.33166654091167
20
4.3754306450914981
30
0
11
193.78754662016297
21
16.23492362515854
31
0
0
LINE
5
213
100
AcDbEntity
8
0
100
AcDbLine
10
145.91297409806015
20
-28.839942908648766
30
0
11
139.54080070020214
21
-40.233344831299647
31
0
0
LINE
5
214
100
AcDbEntity
8
0
100
AcDbLine
10
206.59477242179452
20
-18.395822493478136
30
0
11
306.96894057485918
21
35.394293970975212
31
0
0
LINE
5
215
100
AcDbEntity
8
0
100
AcDbLine
10
169.12082783846429
20
56.32154982304673
30
0
11
180.98032081853134
21
50.865669743795443
31
0
0
LINE
5
216
100
AcDbEntity
8
0
100
AcDbLine
10
175.52444073928004
20
39.006176763728348
30
0
11
276.37846110662304
21
93.053444116370372
31
0
0
LINE
5
217
100
AcDbEntity
8
0
100
AcDbLine
10
193.78754662016297
20
16.23492362515854
30
0
11
285.22554006101541
21
65.236179694937547
31
0
0
LINE
5
218
100
AcDbEntity
8
0
100
AcDbLine
10
110.76437442451021
20
95.519084334912549
30
0
11
99.370972501859413
21
101.89125773277048
31
0
0
LINE
5
219
100
AcDbEntity
8
0
100
AcDbLine
10
187.3839337193472
20
33.550296684477026
30
0
11
274.35383980409341
21
80.157122556918679
31
0
0
LINE
5
220
100
AcDbEntity
8
0
100
AcDbLine
10
169.12082783846429
20
56.32154982304673
30
0
11
265.5067608497011
21
107.97438697835153
31
0
0
LINE
5
221
100
AcDbEntity
8
0
100
AcDbLine
10
115.78560294930301
20
77.753509014403846
30
0
11
104.39220102665224
21
84.125682412261796
31
0
0
LINE
5
222
100
AcDbEntity
8
0
100
AcDbLine
10
169.12082783846429
20
56.32154982304673
30
0
11
174.57670791771562
21
68.181042803113797
31
0
0
LINE
5
223
100
AcDbEntity
8
0
100
AcDbLine
10
194.73527944172744
20
-12.939942414226824
30
0
11
308.9935618773888
21
48.290615530426834
31
0
0
LINE
5
224
100
AcDbEntity
8
0
100
AcDbLine
10
143.50637623520115
20
125.58304206032032
30
0
11
148.96225631445247
21
137.44253504038744
31
0
0
LINE
5
225
100
AcDbEntity
8
0
100
AcDbLine
10
211.14825956509145
20
182.57910128825742
30
0
11
198.2519380056398
21
184.6037225907871
31
0
0
LINE
5
226
100
AcDbEntity
8
0
100
AcDbLine
10
175.52444073928004
20
39.006176763728348
30
0
11
180.98032081853134
21
50.865669743795443
31
0
0
LINE
5
227
100
AcDbEntity
8
0
100
AcDbLine
10
134.51957217540925
20
-22.467769510790781
30
0
11
200.19115952097874
21
-1.0804494341596538
31
0
0
LINE
5
228
100
AcDbEntity
8
0
100
AcDbLine
10
194.73527944172744
20
-12.939942414226824
30
0
11
206.59477242179452
21
-18.395822493478136
31
0
0
LINE
5
229
100
AcDbEntity
8
0
100
AcDbLine
10
105.74314589971735
20
113.28465965542134
30
0
11
143.50637623520106
21
125.58304206032031
31
0
0
LINE
5
230
100
AcDbEntity
8
0
100
AcDbLine
10
143.50637623520106
20
125.58304206032031
30
0
11
148.96225631445242
21
137.44253504038741
31
0
0
LINE
5
231
100
AcDbEntity
8
0
100
AcDbLine
10
168.17309501689979
20
85.496415862432173
30
0
11
241.73873903332762
21
124.91995114286229
31
0
0
LINE
5
232
100
AcDbEntity
8
0
100
AcDbLine
10
156.31360203683272
20
90.952295941683502
30
0
11
243.76336033585721
21
137.81627270231388
31
0
0
LINE
5
233
100
AcDbEntity
8
0
100
AcDbLine
10
169.12082783846427
20
56.321549823046723
30
0
11
174.57670791771557
21
68.181042803113797
31
0
0
LINE
5
234
100
AcDbEntity
8
0
100
AcDbLine
10
188.33166654091158
20
4.3754306450916225
30
0
11
193.78754662016286
21
16.234923625158753
31
0
0
LINE
5
235
100
AcDbEntity
8
0
100
AcDbLine
10
115.78560294930301
20
77.753509014403846
30
0
11
109.41342955144506
21
66.360107091753008
31
0
0
LINE
5
236
100
AcDbEntity
8
0
100
AcDbLine
10
145.91297409806015
20
-28.839942908648766
30
0
11
134.51957217540925
21
-22.467769510790781
31
0
0
LINE
5
237
100
AcDbEntity
8
0
100
AcDbLine
10
149.90998913601692
20
108.26766900100191
30
0
11
232.89166007893527
21
152.73721556429504
31
0
0
LINE
5
238
100
AcDbEntity
8
0
100
AcDbLine
10
115.78560294930301
20
77.753509014403846
30
0
11
156.31360203683266
21
90.952295941683573
31
0
0
LINE
5
239
100
AcDbEntity
8
0
100
AcDbLine
10
140.89174557326729
20
-11.074367588139973
30
0
11
134.51957217540925
21
-22.467769510790781
31
0
0
LINE
5
240
100
AcDbEntity
8
0
100
AcDbLine
10
194.73527944172744
20
-12.939942414226824
30
0
11
200.19115952097874
21
-1.0804494341597604
31
0
0
LINE
5
241
100
AcDbEntity
8
0
100
AcDbLine
10
181.92805364009587
20
21.690803704409909
30
0
11
187.3839337193472
21
33.550296684477026
31
0
0
LINE
5
242
100
AcDbEntity
8
0
100
AcDbLine
10
117.89192463193793
20
194.84453429759398
30
0
11
129.75141761200504
21
189.38865421834265
31
0
0
LINE
5
243
100
AcDbEntity
8
0
100
AcDbLine
10
161.76948211608402
20
102.81178892175062
30
0
11
230.86703877640571
21
139.84089400484348
31
0
0
LINE
5
244
100
AcDbEntity
8
0
100
AcDbLine
10
137.10276333438532
20
142.89841511963868
30
0
11
142.55864341363662
21
154.75790809970582
31
0
0
LINE
5
245
100
AcDbEntity
8
0
100
AcDbLine
10
200.27655930816948
20
197.50004415023866
30
0
11
198.2519380056398
21
184.6037225907871
31
0
0
LINE
5
246
100
AcDbEntity
8
0
100
AcDbLine
10
129.75141761200507
20
189.38865421834265
30
0
11
176.50853749179595
21
214.44560831474951
31
0
0
LWPOLYLINE
5
247
100
AcDbEntity
8
0
100
AcDbPolyline
90
2
70
1
43
0.0
10
85.658231800545934
20
184.34696093745652
10
117.89192463193793
20
194.84453429759398
0
LINE
5
248
100
AcDbEntity
8
0
100
AcDbLine
10
130.69915043356951
20
160.21378817895709
30
0
11
136.15503051282084
21
172.07328115902419
31
0
0
LINE
5
249
100
AcDbEntity
8
0
100
AcDbLine
10
90.679460325338795
20
166.5813856169477
30
0
11
84.307286927480831
21
155.18798369429683
31
0
0
LINE
5
250
100
AcDbEntity
8
0
100
AcDbLine
10
180.98032081853134
20
50.865669743795443
30
0
11
263.48213954717141
21
95.078065418899996
31
0
0
LINE
5
251
100
AcDbEntity
8
0
100
AcDbLine
10
100.72191737492449
20
131.0502349759301
30
0
11
94.34974397706651
21
119.65683305327927
31
0
0
LINE
5
252
100
AcDbEntity
8
0
100
AcDbLine
10
143.50637623520106
20
125.58304206032031
30
0
11
155.36586921526819
21
120.12716198106895
31
0
0
LINE
5
253
100
AcDbEntity
8
0
100
AcDbLine
10
90.679460325338795
20
166.5813856169477
30
0
11
124.29553753275373
21
177.52916123827555
31
0
0
LINE
5
254
100
AcDbEntity
8
0
100
AcDbLine
10
156.31360203683272
20
90.952295941683502
30
0
11
161.76948211608402
21
102.81178892175062
31
0
0
LINE
5
255
100
AcDbEntity
8
0
100
AcDbLine
10
156.31360203683272
20
90.952295941683502
30
0
11
168.17309501689979
21
85.496415862432173
31
0
0
LINE
5
256
100
AcDbEntity
8
0
100
AcDbLine
10
149.90998913601689
20
108.26766900100191
30
0
11
161.76948211608396
21
102.8117889217506
31
0
0
LINE
5
257
100
AcDbEntity
8
0
100
AcDbLine
10
149.90998913601692
20
108.26766900100191
30
0
11
161.76948211608402
21
102.81178892175062
31
0
0
LINE
5
258
100
AcDbEntity
8
0
100
AcDbLine
10
95.700688850131641
20
148.81581029643888
30
0
11
89.328515452273663
21
137.42240837378807
31
0
0
LINE
5
259
100
AcDbEntity
8
0
100
AcDbLine
10
149.90998913601692
20
108.26766900100191
30
0
11
155.36586921526819
21
120.12716198106899
31
0
0
LINE
5
260
100
AcDbEntity
8
0
100
AcDbLine
10
90.679460325338795
20
166.5813856169477
30
0
11
79.286058402687956
21
172.95355901480562
31
0
0
LINE
5
261
100
AcDbEntity
8
0
100
AcDbLine
10
137.10276333438537
20
142.89841511963874
30
0
11
148.96225631445247
21
137.44253504038744
31
0
0
LWPOLYLINE
5
262
100
AcDbEntity
8
0
100
AcDbPolyline
90
41
70
1
43
0.0
10
-83.557915364023003
20
191.0150177836274
10
-16.363988634925875
20
176.23610677081132
10
-35.249331760538553
20
-63.01970572917341
10
-43.725119044168217
20
-53.091199743573654
10
-33.796613058568319
20
-44.615412459943897
10
-160.40127017381252
20
-16.769458928193473
10
-148.54177719374545
20
-11.313578848942214
10
-42.272400342197983
20
-34.68690647434407
10
-32.343894356598085
20
-26.211119190714385
10
-40.81968164022777
20
-16.282613205114558
10
-142.13816429292967
20
6.0017942103760902
10
-147.59404437218097
20
17.861287190443278
10
-135.73455139211381
20
23.317167269694536
10
-39.366962938257686
20
2.1216800641150968
10
-29.438456952657717
20
10.597467347744853
10
-141.19043147136517
20
35.176660249761689
10
-129.33093849129807
20
40.632540329012983
10
-134.78681857054934
20
52.492033309080064
10
-27.985738250687504
20
29.001760616974437
10
-36.461525534317175
20
38.930266602574264
10
-122.92732559048224
20
57.947913388331287
10
-128.38320566973357
20
69.807406368398432
10
-116.52371268966652
20
75.263286447649705
10
-35.008806832346991
20
57.334559871803883
10
-25.080300846747079
20
65.810347155433604
10
-33.556088130376779
20
75.738853141033502
10
-110.12009978885067
20
92.578659506968179
10
-115.57597986810201
20
104.43815248703523
10
-103.71648688803492
20
109.89403256628655
10
-109.17236696728621
20
121.75352554635364
10
-22.174863442806725
20
102.61893369389281
10
-30.65065072643641
20
112.54743967949274
10
-20.722144740836512
20
121.0232269631224
10
-102.76875406647039
20
139.06889860567205
10
-90.909261086403291
20
144.52477868492335
10
-96.36514116565462
20
156.38427166499045
10
-19.2694260388663
20
139.42752023235201
10
-27.745213322495985
20
149.35602621795195
10
-17.816707336896087
20
157.83181350158159
10
-89.961528264838805
20
173.69964472430883
10
-78.102035284771716
20
179.15552480356016
0
LINE
5
263
100
AcDbEntity
8
0
100
AcDbLine
10
-26.533019548717292
20
47.406053886203985
30
0
11
-36.461525534317175
21
38.930266602574264
31
0
0
LINE
5
264
100
AcDbEntity
8
0
100
AcDbLine
10
-160.40127017381252
20
-16.769458928193473
30
0
11
-154.94539009456122
21
-28.628951908260589
31
0
0
LINE
5
265
100
AcDbEntity
8
0
100
AcDbLine
10
-84.505648185587518
20
161.84015174424175
30
0
11
-27.745213322495985
21
149.35602621795195
31
0
0
LINE
5
266
100
AcDbEntity
8
0
100
AcDbLine
10
-19.2694260388663
20
139.42752023235201
30
0
11
-29.197932024466198
21
130.95173294872234
31
0
0
LINE
5
267
100
AcDbEntity
8
0
100
AcDbLine
10
-109.17236696728621
20
121.75352554635364
30
0
11
-97.312873987219049
21
127.20940562560493
31
0
0
LINE
5
268
100
AcDbEntity
8
0
100
AcDbLine
10
-16.363988634925875
20
176.23610677081132
30
0
11
-26.292494620525773
21
167.76031948718153
31
0
0
LINE
5
269
100
AcDbEntity
8
0
100
AcDbLine
10
-115.57597986810201
20
104.43815248703523
30
0
11
-23.627582144776866
21
84.214640424663187
31
0
0
LINE
5
270
100
AcDbEntity
8
0
100
AcDbLine
10
-17.816707336896087
20
157.83181350158159
30
0
11
-26.292494620525773
21
167.76031948718153
31
0
0
LINE
5
271
100
AcDbEntity
8
0
100
AcDbLine
10
-103.71648688803492
20
109.89403256628655
30
0
11
-32.103369428406637
21
94.143146410263085
31
0
0
LINE
5
272
100
AcDbEntity
8
0
100
AcDbLine
10
-26.533019548717292
20
47.406053886203985
30
0
11
-35.008806832346991
21
57.334559871803883
31
0
0
LINE
5
273
100
AcDbEntity
8
0
100
AcDbLine
10
-20.722144740836512
20
121.0232269631224
30
0
11
-29.197932024466198
21
130.95173294872234
31
0
0
LINE
5
274
100
AcDbEntity
8
0
100
AcDbLine
10
-153.99765727299678
20
0.54591413112483167
30
0
11
-32.343894356598085
21
-26.211119190714385
31
0
0
LINE
5
275
100
AcDbEntity
8
0
100
AcDbLine
10
-128.38320566973357
20
69.807406368398432
30
0
11
-26.533019548717292
21
47.406053886203985
31
0
0
LINE
5
276
100
AcDbEntity
8
0
100
AcDbLine
10
-166.80488307462832
20
-34.084831987511848
30
0
11
-35.249331760538553
21
-63.01970572917341
31
0
0
LINE
5
277
100
AcDbEntity
8
0
100
AcDbLine
10
-154.94539009456122
20
-28.628951908260589
30
0
11
-43.725119044168217
21
-53.091199743573654
31
0
0
LINE
5
278
100
AcDbEntity
8
0
100
AcDbLine
10
-33.796613058568319
20
-44.615412459943897
30
0
11
-42.272400342197983
21
-34.68690647434407
31
0
0
LINE
5
279
100
AcDbEntity
8
0
100
AcDbLine
10
-121.9795927689178
20
87.122779427716807
30
0
11
-116.52371268966652
21
75.263286447649705
31
0
0
LINE
5
280
100
AcDbEntity
8
0
100
AcDbLine
10
-102.76875406647039
20
139.06889860567205
30
0
11
-97.312873987219049
21
127.20940562560493
31
0
0
LINE
5
281
100
AcDbEntity
8
0
100
AcDbLine
10
-153.99765727299678
20
0.54591413112483167
30
0
11
-142.13816429292967
21
6.0017942103760902
31
0
0
LINE
5
282
100
AcDbEntity
8
0
100
AcDbLine
10
-90.909261086403291
20
144.52477868492335
30
0
11
-29.197932024466198
21
130.95173294872234
31
0
0
LINE
5
283
100
AcDbEntity
8
0
100
AcDbLine
10
-97.312873987219049
20
127.20940562560493
30
0
11
-30.65065072643641
21
112.54743967949274
31
0
0
LINE
5
284
100
AcDbEntity
8
0
100
AcDbLine
10
-153.99765727299678
20
0.54591413112483167
30
0
11
-148.54177719374545
21
-11.313578848942214
31
0
0
LINE
5
285
100
AcDbEntity
8
0
100
AcDbLine
10
-121.9795927689178
20
87.122779427716807
30
0
11
-25.080300846747079
21
65.810347155433604
31
0
0
LINE
5
286
100
AcDbEntity
8
0
100
AcDbLine
10
-166.80488307462832
20
-34.084831987511848
30
0
11
-154.94539009456122
21
-28.628951908260589
31
0
0
LINE
5
287
100
AcDbEntity
8
0
100
AcDbLine
10
-96.36514116565462
20
156.38427166499045
30
0
11
-84.505648185587518
21
161.84015174424175
31
0
0
LINE
5
288
100
AcDbEntity
8
0
100
AcDbLine
10
-121.9795927689178
20
87.122779427716807
30
0
11
-110.12009978885067
21
92.578659506968179
31
0
0
LINE
5
289
100
AcDbEntity
8
0
100
AcDbLine
10
-83.557915364023003
20
191.0150177836274
30
0
11
-16.363988634925875
21
176.23610677081132
31
0
0
LINE
5
290
100
AcDbEntity
8
0
100
AcDbLine
10
-89.961528264838805
20
173.69964472430883
30
0
11
-84.505648185587518
21
161.84015174424175
31
0
0
LINE
5
291
100
AcDbEntity
8
0
100
AcDbLine
10
-78.102035284771716
20
179.15552480356016
30
0
11
-26.292494620525773
21
167.76031948718153
31
0
0
LINE
5
292
100
AcDbEntity
8
0
100
AcDbLine
10
-147.59404437218097
20
17.861287190443278
30
0
11
-30.891175654627929
21
-7.8068259214848013
31
0
0
LINE
5
293
100
AcDbEntity
8
0
100
AcDbLine
10
-141.19043147136517
20
35.176660249761689
30
0
11
-135.73455139211381
21
23.317167269694536
31
0
0
LINE
5
294
100
AcDbEntity
8
0
100
AcDbLine
10
-30.891175654627929
20
-7.8068259214848013
30
0
11
-40.81968164022777
21
-16.282613205114558
31
0
0
LINE
5
295
100
AcDbEntity
8
0
100
AcDbLine
10
-27.985738250687504
20
29.001760616974437
30
0
11
-37.914244236287438
21
20.525973333344822
31
0
0
LINE
5
296
100
AcDbEntity
8
0
100
AcDbLine
10
-134.78681857054934
20
52.492033309080064
30
0
11
-122.92732559048224
21
57.947913388331287
31
0
0
LINE
5
297
100
AcDbEntity
8
0
100
AcDbLine
10
-23.627582144776866
20
84.214640424663187
30
0
11
-32.103369428406637
21
94.143146410263085
31
0
0
LINE
5
298
100
AcDbEntity
8
0
100
AcDbLine
10
-30.891175654627929
20
-7.8068259214848013
30
0
11
-39.366962938257686
21
2.1216800641150968
31
0
0
LINE
5
299
100
AcDbEntity
8
0
100
AcDbLine
10
-23.627582144776866
20
84.214640424663187
30
0
11
-33.556088130376779
21
75.738853141033502
31
0
0
LINE
5
300
100
AcDbEntity
8
0
100
AcDbLine
10
-129.33093849129807
20
40.632540329012983
30
0
11
-37.914244236287438
21
20.525973333344822
31
0
0
LINE
5
301
100
AcDbEntity
8
0
100
AcDbLine
10
-22.174863442806725
20
102.61893369389281
30
0
11
-32.103369428406637
21
94.143146410263085
31
0
0
LINE
5
302
100
AcDbEntity
8
0
100
AcDbLine
10
-29.438456952657717
20
10.597467347744853
30
0
11
-37.914244236287438
21
20.525973333344822
31
0
0
LINE
5
303
100
AcDbEntity
8
0
100
AcDbLine
10
-83.557915364023003
20
191.0150177836274
30
0
11
-166.80488307462832
21
-34.084831987511848
31
0
0
LINE
5
304
100
AcDbEntity
8
0
100
AcDbLine
10
-64.279581007315016
20
186.77486094502243
30
0
11
-86.70847840974281
21
-51.701567526145702
31
0
0
LINE
5
305
100
AcDbEntity
8
0
100
AcDbLine
10
135.29025279780186
20
204.16822898467248
30
0
11
273.42436615375436
21
8.482181698674971
31
0
0
ENDSEC
0
SECTION
2
OBJECTS
0
DICTIONARY
5
C
100
AcDbDictionary
3
ACAD_GROUP
350
D
3
ACAD_MLINESTYLE
350
17
0
DICTIONARY
5
D
100
AcDbDictionary
0
DICTIONARY
5
1A
330
C
100
AcDbDictionary
0
DICTIONARY
5
17
100
AcDbDictionary
0
ENDSEC
0
EOF
